<?xml version="1.0" encoding="iso-8859-1"?>
<svg version="1.1" id="Capa_1" 
	xmlns="http://www.w3.org/2000/svg" 
	xmlns:xlink="http://www.w3.org/1999/xlink">
	<g id="lm_bbox">
		<g transform="scale(0.1)">
			<g>
				<path style="fill:#E8EDEE;" d="M238.935,51.2c-4.71,0-8.533-3.823-8.533-8.533V25.6c0-4.71,3.823-8.533,8.533-8.533
			c4.71,0,8.533,3.823,8.533,8.533v17.067C247.469,47.377,243.646,51.2,238.935,51.2"/>
				<path style="fill:#E8EDEE;" d="M290.135,51.2c-4.71,0-8.533-3.823-8.533-8.533V8.533c0-4.71,3.823-8.533,8.533-8.533
			c4.71,0,8.533,3.823,8.533,8.533v34.133C298.669,47.377,294.846,51.2,290.135,51.2"/>
			</g>
			<g>
				<path style="fill:#434C6D;" d="M281.602,512h-34.133c-4.719,0-8.533-3.823-8.533-8.533c0-4.71,3.814-8.533,8.533-8.533h34.133
			c4.719,0,8.533,3.823,8.533,8.533C290.135,508.177,286.321,512,281.602,512"/>
				<path style="fill:#434C6D;" d="M264.535,512c-4.719,0-8.533-3.823-8.533-8.533V435.2c0-4.71,3.814-8.533,8.533-8.533
			c4.719,0,8.533,3.823,8.533,8.533v68.267C273.069,508.177,269.254,512,264.535,512"/>
				<path style="fill:#434C6D;" d="M102.402,392.538c-3.575,0-6.903-2.261-8.09-5.837c-1.493-4.471,0.922-9.301,5.393-10.795
			l76.8-25.6c4.506-1.502,9.293,0.93,10.786,5.393c1.493,4.471-0.922,9.301-5.393,10.795l-76.8,25.6
			C104.203,392.393,103.29,392.538,102.402,392.538"/>
				<path style="fill:#434C6D;" d="M85.344,477.867c-3.021,0-5.948-1.604-7.501-4.446c-2.261-4.139-0.734-9.318,3.413-11.58
			l93.867-51.2c4.113-2.261,9.31-0.734,11.571,3.405c2.261,4.139,0.734,9.318-3.405,11.58l-93.867,51.2
			C88.126,477.534,86.726,477.867,85.344,477.867"/>
				<path style="fill:#434C6D;" d="M179.194,426.671c-1.161,0-2.33-0.239-3.456-0.742l-76.8-34.133
			c-4.309-1.911-6.246-6.955-4.335-11.264c1.92-4.301,6.963-6.246,11.264-4.326l76.8,34.133c4.309,1.911,6.246,6.955,4.335,11.264
			C185.585,424.777,182.47,426.671,179.194,426.671"/>
				<path style="fill:#434C6D;" d="M426.669,392.538c-0.887,0-1.801-0.145-2.697-0.444l-76.8-25.6
			c-4.471-1.493-6.886-6.323-5.393-10.795c1.493-4.463,6.272-6.895,10.786-5.393l76.8,25.6c4.471,1.493,6.886,6.323,5.393,10.795
			C433.572,390.276,430.244,392.538,426.669,392.538"/>
				<path style="fill:#434C6D;" d="M443.727,477.867c-1.382,0-2.782-0.333-4.079-1.041l-93.867-51.2
			c-4.139-2.261-5.666-7.441-3.405-11.58c2.261-4.139,7.458-5.666,11.571-3.405l93.867,51.2c4.147,2.261,5.675,7.441,3.413,11.58
			C449.675,476.262,446.748,477.867,443.727,477.867"/>
				<path style="fill:#434C6D;" d="M349.877,426.671c-3.277,0-6.391-1.894-7.808-5.069c-1.911-4.309,0.026-9.353,4.335-11.264
			l76.8-34.133c4.318-1.92,9.344,0.026,11.264,4.326c1.911,4.309-0.026,9.353-4.335,11.264l-76.8,34.133
			C352.207,426.432,351.038,426.671,349.877,426.671"/>
				<polygon style="fill:#434C6D;" points="179.202,435.2 349.869,435.2 349.869,349.867 179.202,349.867 		"/>
				<path style="fill:#434C6D;" d="M68.277,512.004c-0.785,0-1.57-0.111-2.347-0.333c-4.54-1.297-7.159-6.016-5.871-10.547
			l34.133-119.467c1.297-4.54,6.067-7.159,10.547-5.862c4.54,1.297,7.159,6.016,5.871,10.547L76.478,505.809
			C75.403,509.555,71.989,512.004,68.277,512.004"/>
				<path style="fill:#434C6D;" d="M93.869,512H51.202c-4.719,0-8.533-3.823-8.533-8.533c0-4.71,3.814-8.533,8.533-8.533h42.667
			c4.719,0,8.533,3.823,8.533,8.533C102.402,508.177,98.588,512,93.869,512"/>
				<path style="fill:#434C6D;" d="M477.869,512h-42.667c-4.719,0-8.533-3.823-8.533-8.533c0-4.71,3.814-8.533,8.533-8.533h42.667
			c4.719,0,8.533,3.823,8.533,8.533C486.402,508.177,482.588,512,477.869,512"/>
			</g>
			<g>
				<path style="fill:#F3D55B;" d="M221.869,392.533c0,4.71-3.823,8.533-8.533,8.533s-8.533-3.823-8.533-8.533
			s3.823-8.533,8.533-8.533S221.869,387.823,221.869,392.533"/>
				<path style="fill:#F3D55B;" d="M256.002,392.533c0,4.71-3.823,8.533-8.533,8.533s-8.533-3.823-8.533-8.533
			s3.823-8.533,8.533-8.533S256.002,387.823,256.002,392.533"/>
				<path style="fill:#F3D55B;" d="M290.135,392.533c0,4.71-3.823,8.533-8.533,8.533s-8.533-3.823-8.533-8.533
			s3.823-8.533,8.533-8.533S290.135,387.823,290.135,392.533"/>
				<path style="fill:#F3D55B;" d="M324.269,392.533c0,4.71-3.823,8.533-8.533,8.533s-8.533-3.823-8.533-8.533
			s3.823-8.533,8.533-8.533S324.269,387.823,324.269,392.533"/>
			</g>
			<path style="fill:#434C6D;" d="M460.794,512.004c-3.712,0-7.125-2.449-8.201-6.195L418.46,386.342
		c-1.289-4.531,1.331-9.25,5.871-10.547c4.497-1.289,9.25,1.323,10.547,5.862l34.133,119.467c1.289,4.531-1.331,9.25-5.871,10.547
		C462.364,511.893,461.579,512.004,460.794,512.004"/>
			<path style="fill:#E8EDEE;" d="M383.645,315.733H145.429c-14.336,0-25.958-11.622-25.958-25.958V102.758
		c0-14.336,11.622-25.958,25.958-25.958h238.217c14.336,0,25.958,11.622,25.958,25.958v187.017
		C409.604,304.111,397.981,315.733,383.645,315.733"/>
			<g>
				<polygon style="fill:#B0B6BB;" points="179.202,349.867 349.869,349.867 349.869,315.733 179.202,315.733 		"/>
				<path style="fill:#B0B6BB;" d="M349.869,76.8H179.202V54.929c0-6.767,5.495-12.262,12.262-12.262h146.142
			c6.767,0,12.262,5.495,12.262,12.262V76.8z"/>
				<path style="fill:#B0B6BB;" d="M332.802,196.267c0,37.7-30.566,68.267-68.267,68.267s-68.267-30.566-68.267-68.267
			S226.835,128,264.535,128S332.802,158.566,332.802,196.267"/>
			</g>
			<path style="fill:#E8EDEE;" d="M298.669,196.267c0,18.85-15.283,34.133-34.133,34.133s-34.133-15.283-34.133-34.133
		s15.283-34.133,34.133-34.133S298.669,177.417,298.669,196.267"/>
			<g>
				<path style="fill:#B0B6BB;" d="M162.135,110.933c0,4.71-3.823,8.533-8.533,8.533s-8.533-3.823-8.533-8.533
			c0-4.71,3.823-8.533,8.533-8.533S162.135,106.223,162.135,110.933"/>
				<path style="fill:#B0B6BB;" d="M204.802,119.467h-17.067c-4.71,0-8.533-3.823-8.533-8.533c0-4.71,3.823-8.533,8.533-8.533h17.067
			c4.71,0,8.533,3.823,8.533,8.533C213.335,115.644,209.513,119.467,204.802,119.467"/>
				<path style="fill:#B0B6BB;" d="M366.935,281.6c0-4.71,3.823-8.533,8.533-8.533s8.533,3.823,8.533,8.533s-3.823,8.533-8.533,8.533
			S366.935,286.31,366.935,281.6"/>
				<path style="fill:#B0B6BB;" d="M341.335,290.133h-17.067c-4.71,0-8.533-3.823-8.533-8.533s3.823-8.533,8.533-8.533h17.067
			c4.71,0,8.533,3.823,8.533,8.533S346.046,290.133,341.335,290.133"/>
			</g>
		</g>
	</g>
</svg>
